# xmcd
#
# Track frame offsets:
#	150
#	16330
#	27910
#	51885
#	68173
#	85765
#	102928
#	118263
#	132038
#
# Disc length: 2006 seconds
#
# Revision: 0
# Processed by: cddbd v1.4PL0 Copyright (c) Steve Scherf et al.
# Submitted via: EasyCDDAExtractor 4.5.2.1
#
DISCID=7007d409
DTITLE=Mama Roo
DYEAR=1090
DGENRE=Blues
TTITLE0=Back Door Man
TTITLE1=Have some Fun
TTITLE2=Our love is forever
TTITLE3=Red Cadillac
TTITLE4=Stone cold Lover
TTITLE5=No Money down
TTITLE6=People are over the World
TTITLE7=See a change a comin´
TTITLE8=Do the Do
EXTD=
EXTT0=
EXTT1=
EXTT2=
EXTT3=
EXTT4=
EXTT5=
EXTT6=
EXTT7=
EXTT8=
PLAYORDER=
